<svg xmlns="http://www.w3.org/2000/svg" width="256" height="256" viewBox="0 0 100 100"><rect width="100" height="100" rx="20" fill="#000000"></rect><path fill="#fff" d="M80.20 81.19L80.20 81.19Q78.66 82.73 75.74 83.55Q72.83 84.38 68.75 84.38L68.75 84.38Q64.69 84.38 61.05 83.17Q57.42 81.95 55.11 77.34L55.11 77.34L44.22 55.12Q42.57 51.71 41.25 48.68Q39.93 45.66 38.39 41.70L38.39 41.70L37.62 41.92Q38.17 48.85 38.23 54.73Q38.28 60.62 38.28 66.01L38.28 66.01L38.28 83.50Q37.07 83.72 34.65 84.05Q32.23 84.38 29.70 84.38L29.70 84.38Q24.09 84.38 21.95 82.45Q19.80 80.53 19.80 75.58L19.80 75.58L19.80 20.25Q21.34 18.05 24.53 16.95Q27.72 15.84 31.35 15.84L31.35 15.84Q35.42 15.84 39.11 17.11Q42.79 18.38 44.99 22.89L44.99 22.89L55.99 45.11Q57.64 48.52 58.96 51.54Q60.28 54.57 61.82 58.53L61.82 58.53L62.26 58.42Q61.82 53.14 61.77 48.46Q61.71 43.79 61.71 39.50L61.71 39.50L61.71 16.51Q62.92 16.29 65.34 15.95Q67.77 15.63 70.30 15.63L70.30 15.63Q75.91 15.63 78.05 17.55Q80.20 19.48 80.20 24.43L80.20 24.43L80.20 81.19Z"></path></svg>